<svg xmlns="http://www.w3.org/2000/svg" width="2495" height="1332" viewBox="0 0 2495 1332">
  <defs>
    <marker id="arrow" markerUnits="userSpaceOnUse" markerWidth="24" markerHeight="24" refX="22" refY="12" orient="auto">
      <path d="M0,0 L24,12 L0,24 Z" fill="#ff5a4f"/>
    </marker>
    <style>
      .arrow{stroke:#ff5a4f;stroke-width:6;fill:none;marker-end:url(#arrow)}
      .mark{fill:#2f80ed;stroke:#fff;stroke-width:3}
      .num{font:700 29px 'Noto Sans CJK SC',sans-serif;fill:#fff;text-anchor:middle;dominant-baseline:central}
    </style>
  </defs>
  
    <line class="arrow" x1="430" y1="72" x2="350" y2="20"/>
    <circle class="mark" cx="430" cy="72" r="27"/>
    <text class="num" x="430" y="72">1</text>
    <line class="arrow" x1="585" y1="72" x2="470" y2="20"/>
    <circle class="mark" cx="585" cy="72" r="27"/>
    <text class="num" x="585" y="72">2</text>
    <line class="arrow" x1="1030" y1="700" x2="1030" y2="560"/>
    <circle class="mark" cx="1030" cy="700" r="27"/>
    <text class="num" x="1030" y="700">3</text>
    <line class="arrow" x1="2100" y1="475" x2="2295" y2="285"/>
    <circle class="mark" cx="2100" cy="475" r="27"/>
    <text class="num" x="2100" y="475">4</text>
    <line class="arrow" x1="2310" y1="72" x2="2374" y2="20"/>
    <circle class="mark" cx="2310" cy="72" r="27"/>
    <text class="num" x="2310" y="72">5</text>
    <line class="arrow" x1="2435" y1="72" x2="2458" y2="20"/>
    <circle class="mark" cx="2435" cy="72" r="27"/>
    <text class="num" x="2435" y="72">6</text>
</svg>